<?xml version="1.0" encoding="UTF-8" standalone="no"?>
<svg width="24px" height="24px" viewBox="0 0 24 24" version="1.1" xmlns="http://www.w3.org/2000/svg" xmlns:xlink="http://www.w3.org/1999/xlink">
    <!-- Generator: Sketch 42 (36781) - http://www.bohemiancoding.com/sketch -->
    <title>icon_maintenance</title>
    <desc>Created with Sketch.</desc>
    <defs></defs>
    <g id="Page-1" stroke="none" stroke-width="1" fill="none" fill-rule="evenodd">
        <g id="icon_maintenance" fill="#EC6C00">
            <path d="M22.8444699,4.94360621 C22.4567632,5.36050112 21.8131395,5.89116136 20.8906122,6.69926224 C19.9136833,7.63287196 18.5306586,7.63287196 17.5537297,6.69926224 C16.5760346,5.76418457 16.5760346,4.44303873 17.5537297,3.50869503 C18.4540367,2.64774832 19.4217709,1.62826412 19.4064465,1.6238603 C16.7898097,0.469325627 13.5908466,0.915579333 11.4347071,2.97656684 C9.46935616,4.85479585 8.90925028,7.56020894 9.73600027,9.91698633 L1.4217611,17.8658805 C0.192746299,19.0402323 0.192746299,20.9448842 1.4217611,22.1192361 C2.6507759,23.293588 4.64294454,23.293588 5.87195934,22.1192361 L14.1854323,14.1710759 C16.6526565,14.9630295 19.4823022,14.4257635 21.4476532,12.5475345 C23.6007277,10.4887489 24.0481995,7.44277376 22.8444699,4.94360621" id="Fill-172"></path>
        </g>
    </g>
</svg>