<?xml version="1.0" encoding="UTF-8" standalone="no"?>
<svg width="24px" height="24px" viewBox="0 0 24 24" version="1.1" xmlns="http://www.w3.org/2000/svg" xmlns:xlink="http://www.w3.org/1999/xlink">
    <!-- Generator: Sketch 42 (36781) - http://www.bohemiancoding.com/sketch -->
    <title>icon_error</title>
    <desc>Created with Sketch.</desc>
    <defs></defs>
    <g id="Page-1" stroke="none" stroke-width="1" fill="none" fill-rule="evenodd">
        <g id="icon_error" fill="#FF0029">
            <path d="M16.2337711,15.1925802 C16.5272045,15.4852022 16.5272045,15.9654023 16.2337711,16.2580242 C15.9410882,16.5506461 15.4652908,16.5506461 15.1718574,16.2580242 L11.9928705,13.0766986 L8.79136961,16.2805336 C8.4956848,16.5731555 8.01688555,16.5731555 7.72120075,16.2805336 C7.42626642,15.9804085 7.42626642,15.5002084 7.72120075,15.2075865 L10.9227017,12.0037516 L7.74371482,8.82992914 C7.45028143,8.53730721 7.45028143,8.05710713 7.74371482,7.7644852 C8.03564728,7.47186328 8.51144465,7.47186328 8.80487805,7.7644852 L11.9838649,10.9458108 L15.2093809,7.71946644 C15.5050657,7.42684452 15.9831144,7.42684452 16.2787992,7.71946644 C16.5737336,8.0195915 16.5737336,8.49228845 16.2787992,8.79241351 L13.0540338,12.0187578 L16.2337711,15.1925802 L16.2337711,15.1925802 Z M12,0 C5.37225,0 0,5.37 0,12 C0,18.63 5.37225,24 12,24 C18.62775,24 24,18.63 24,12 C24,5.37 18.62775,0 12,0 L12,0 Z" id="Fill-23-Copy"></path>
        </g>
    </g>
</svg>