<?xml version="1.0" encoding="UTF-8" standalone="no"?>
<svg width="24px" height="24px" viewBox="0 0 24 24" version="1.1" xmlns="http://www.w3.org/2000/svg" xmlns:xlink="http://www.w3.org/1999/xlink">
    <!-- Generator: Sketch 42 (36781) - http://www.bohemiancoding.com/sketch -->
    <title>icon_info</title>
    <desc>Created with Sketch.</desc>
    <defs></defs>
    <g id="Page-1" stroke="none" stroke-width="1" fill="none" fill-rule="evenodd">
        <g id="icon_info" fill="#9B9B9B">
            <path d="M11.4501812,4.03265748 C11.6644833,3.2328709 13.2119563,2.95180943 14.0117428,3.1661116 C14.8115294,3.38041377 16.0111496,4.3975566 15.7968474,5.19734319 C15.5825452,5.99712977 12.2880437,12.7981906 11.4882572,12.5838884 C10.6884706,12.3695862 11.235879,4.83244407 11.4501812,4.03265748 Z M9.38822857,15.3617714 C9.60253074,14.5619848 10.4255593,14.0868091 11.2253459,14.3011113 C12.0251325,14.5154134 12.5003082,15.338442 12.286006,16.1382286 C12.0717039,16.9380152 11.2486753,17.4131909 10.4488887,17.1988887 C9.64910216,16.9845866 9.1739264,16.161558 9.38822857,15.3617714 Z M24,10.5 C24,13.81425 22.24125,16.7655 19.5,18.68925 L19.5,24 L14.24325,20.81025 C13.51575,20.93025 12.76725,21 12,21 C5.373,21 0,16.299 0,10.5 C0,4.70175 5.373,0 12,0 C18.627,0 24,4.70175 24,10.5 Z" id="Fill-189-Copy"></path>
        </g>
    </g>
</svg>