<?xml version="1.0" encoding="UTF-8" standalone="no"?>
<svg width="24px" height="24px" viewBox="0 0 24 24" version="1.1" xmlns="http://www.w3.org/2000/svg" xmlns:xlink="http://www.w3.org/1999/xlink">
    <!-- Generator: Sketch 42 (36781) - http://www.bohemiancoding.com/sketch -->
    <title>icon_upgrade</title>
    <desc>Created with Sketch.</desc>
    <defs></defs>
    <g id="Page-1" stroke="none" stroke-width="1" fill="none" fill-rule="evenodd">
        <g id="icon_upgrade" fill="#FDCC00">
            <path d="M11.3777003,6.76264609 L11.3777003,2.34119904 C11.4028823,2.11637969 11.3428899,1.89156035 11.1740223,1.71919886 C10.880726,1.42693371 10.4052305,1.42693371 10.1119342,1.71919886 L2.71360883,9.9325988 C2.55733226,10.0899723 2.49067401,10.2923098 2.50104307,10.5021411 C2.49067401,10.7044785 2.55733226,10.9143099 2.71360883,11.0716835 L10.0711986,19.2326256 C10.3459787,19.4724329 10.8503595,19.6073245 11.1740223,19.2775894 C11.3421492,19.1127219 11.416214,18.9628424 11.3902913,18.745517 L11.3902913,14.2491302 C16.2785631,14.2491302 20.6994865,17.8087697 21.5771535,22.5 C22.16819,21.121108 22.5,19.6073245 22.5,18.0111071 C22.5,11.7985993 17.5198879,6.76264609 11.3777003,6.76264609" id="Fill-12" transform="translate(12.500000, 12.000000) rotate(90.000000) translate(-12.500000, -12.000000) "></path>
        </g>
    </g>
</svg>